<?xml version="1.0" encoding="UTF-8"?>
<svg id="Ebene_2" xmlns="http://www.w3.org/2000/svg" xmlns:xlink="http://www.w3.org/1999/xlink" viewBox="0 0 98.03 63.94"><defs><style>.cls-1{fill:url(#Unbenannter_Verlauf_12-9);}.cls-1,.cls-2,.cls-3,.cls-4,.cls-5,.cls-6,.cls-7,.cls-8,.cls-9,.cls-10,.cls-11,.cls-12,.cls-13,.cls-14,.cls-15,.cls-16{stroke-width:0px;}.cls-2{fill:url(#Unbenannter_Verlauf_12-8);}.cls-3{fill:url(#Unbenannter_Verlauf_12-3);}.cls-4{fill:url(#Unbenannter_Verlauf_12-6);}.cls-5{fill:url(#Unbenannter_Verlauf_12-5);}.cls-6{fill:url(#Unbenannter_Verlauf_12-4);}.cls-7{fill:url(#Unbenannter_Verlauf_12-2);}.cls-8{fill:url(#Unbenannter_Verlauf_12-7);}.cls-9{fill:url(#Unbenannter_Verlauf_12-16);}.cls-10{fill:url(#Unbenannter_Verlauf_12-10);}.cls-11{fill:url(#Unbenannter_Verlauf_12-11);}.cls-12{fill:url(#Unbenannter_Verlauf_12-12);}.cls-13{fill:url(#Unbenannter_Verlauf_12-14);}.cls-14{fill:url(#Unbenannter_Verlauf_12-13);}.cls-15{fill:url(#Unbenannter_Verlauf_12-15);}.cls-16{fill:url(#Unbenannter_Verlauf_12);}</style><linearGradient id="Unbenannter_Verlauf_12" x1="34.04" y1="62.6" x2="34.04" y2="1.27" gradientUnits="userSpaceOnUse"><stop offset=".05" stop-color="#00aec3"/><stop offset=".95" stop-color="#a3d8e3"/></linearGradient><linearGradient id="Unbenannter_Verlauf_12-2" x1="17.95" y1="62.6" x2="17.95" y2="1.27" xlink:href="#Unbenannter_Verlauf_12"/><linearGradient id="Unbenannter_Verlauf_12-3" x1="23.69" x2="23.69" y2="1.27" xlink:href="#Unbenannter_Verlauf_12"/><linearGradient id="Unbenannter_Verlauf_12-4" x1="46.81" y1="62.6" x2="46.81" y2="1.27" xlink:href="#Unbenannter_Verlauf_12"/><linearGradient id="Unbenannter_Verlauf_12-5" x1="57.31" y1="62.6" x2="57.31" y2="1.27" xlink:href="#Unbenannter_Verlauf_12"/><linearGradient id="Unbenannter_Verlauf_12-6" x1="73.93" y1="62.6" x2="73.93" y2="1.27" xlink:href="#Unbenannter_Verlauf_12"/><linearGradient id="Unbenannter_Verlauf_12-7" x1="61.47" y1="62.6" x2="61.47" y2="1.27" xlink:href="#Unbenannter_Verlauf_12"/><linearGradient id="Unbenannter_Verlauf_12-8" x1="87.08" y1="62.6" x2="87.08" y2="1.27" xlink:href="#Unbenannter_Verlauf_12"/><linearGradient id="Unbenannter_Verlauf_12-9" x1="85.99" y1="62.6" x2="85.99" y2="1.27" xlink:href="#Unbenannter_Verlauf_12"/><linearGradient id="Unbenannter_Verlauf_12-10" x1="68.52" y1="62.6" x2="68.52" y2="1.27" xlink:href="#Unbenannter_Verlauf_12"/><linearGradient id="Unbenannter_Verlauf_12-11" x1="55.79" y1="62.6" x2="55.79" y2="1.27" xlink:href="#Unbenannter_Verlauf_12"/><linearGradient id="Unbenannter_Verlauf_12-12" x1="94.25" y1="62.6" x2="94.25" y2="1.27" xlink:href="#Unbenannter_Verlauf_12"/><linearGradient id="Unbenannter_Verlauf_12-13" x1="71.6" y1="62.6" x2="71.6" y2="1.27" xlink:href="#Unbenannter_Verlauf_12"/><linearGradient id="Unbenannter_Verlauf_12-14" x1="37.33" y1="62.6" x2="37.33" y2="1.27" xlink:href="#Unbenannter_Verlauf_12"/><linearGradient id="Unbenannter_Verlauf_12-15" x1="12.3" y1="62.6" x2="12.3" y2="1.27" xlink:href="#Unbenannter_Verlauf_12"/><linearGradient id="Unbenannter_Verlauf_12-16" x1="5.05" y1="62.6" x2="5.05" y2="1.27" xlink:href="#Unbenannter_Verlauf_12"/></defs><g id="Ebene_1-2"><polygon class="cls-16" points="38.53 18.27 25.66 26.18 32.54 31.11 42.42 25.1 38.53 18.27"/><polygon class="cls-7" points="13.67 42.55 14.34 48.8 22.39 29.88 13.51 41.07 13.67 42.55"/><polygon class="cls-3" points="31.63 31.89 24.86 27.04 15.74 48.48 31.63 31.89"/><polygon class="cls-6" points="39.58 17.76 43.42 24.49 54.03 17.94 52.72 12.71 39.58 17.76"/><polygon class="cls-5" points="50.84 33.65 65.99 35.9 54.53 19 48.64 22.64 50.84 33.65"/><polygon class="cls-4" points="63.2 13.1 68.7 19.91 79.22 24.87 84.66 26.02 80.08 17.56 63.2 13.1"/><polygon class="cls-8" points="56.01 17.83 66.93 19.57 61.56 12.92 56.01 17.83"/><polygon class="cls-2" points="89.69 32.87 92.11 25.25 82.06 18.77 89.69 32.87"/><polygon class="cls-1" points="89.47 34.85 82.09 32.51 77.04 38.53 94.93 42.18 89.47 34.85"/><polygon class="cls-10" points="78.58 25.86 68.16 20.95 55.94 18.99 67.45 35.98 81.1 31.48 78.58 25.86"/><polygon class="cls-11" points="55.57 3.86 50.72 0 55.03 17.14 60.86 11.98 55.57 3.86"/><polygon class="cls-12" points="92.93 26.52 90.47 34.24 96.13 41.83 98.03 36.44 92.93 26.52"/><polygon class="cls-14" points="68.16 43.94 75.57 38.48 80.14 33.03 67.6 37.16 63.07 44.56 68.16 43.94"/><polygon class="cls-13" points="24.99 40.51 49.67 33.75 47.58 23.29 43.52 25.8 43.51 25.8 43.51 25.8 32.89 32.27 29.88 35.4 24.99 40.51"/><path class="cls-15" d="m15.3,63.94l-1.87-12.72s0-.02,0-.02l-.81-7.51-3.32,10.36,6,9.88Z"/><polygon class="cls-9" points="8.27 53.46 10.1 47.75 0 51.82 8.27 53.46"/></g></svg>